<svg width="134" height="70" viewBox="0 0 134 70" fill="none" xmlns="http://www.w3.org/2000/svg">
<path d="M18.7765 8.60134C20.055 8.83449 20.3188 10.5518 19.1692 11.158L13.3656 14.2191L11.7485 20.5776C11.4287 21.8373 9.69694 21.9825 9.17044 20.7939L3.50487 7.99037C3.40389 7.76285 3.36686 7.5121 3.39775 7.2651C3.42865 7.0181 3.5263 6.7842 3.68021 6.58856C3.83412 6.39293 4.03846 6.24295 4.27124 6.15478C4.50403 6.06661 4.75645 6.04357 5.00134 6.08815L18.7765 8.60134Z" fill="#E94B30"/>
<g filter="url(#filter0_dii_8_37)">
<path d="M18 26C18 23.2386 20.2386 21 23 21H105.5C115.717 21 124 29.2827 124 39.5V39.5C124 49.7173 115.717 58 105.5 58H38C26.9543 58 18 49.0457 18 38V26Z" fill="#262626" shape-rendering="crispEdges"/>
<path d="M105.5 20H23C19.6863 20 17 22.6863 17 26V38C17 49.598 26.402 59 38 59H105.5C116.27 59 125 50.2696 125 39.5C125 28.7304 116.27 20 105.5 20Z" stroke="#0F0F0F" stroke-width="2" shape-rendering="crispEdges"/>
<path d="M37.124 45.21C36.1207 45.21 35.269 44.9883 34.569 44.545C33.869 44.1017 33.3347 43.4857 32.966 42.697C32.602 41.9083 32.42 40.996 32.42 39.96C32.42 38.924 32.602 38.0117 32.966 37.223C33.3347 36.4343 33.869 35.8183 34.569 35.375C35.269 34.9317 36.1207 34.71 37.124 34.71C38.2907 34.71 39.2497 35.0063 40.001 35.599C40.757 36.1917 41.2773 36.9897 41.562 37.993L40.295 38.329C40.0897 37.5777 39.7233 36.985 39.196 36.551C38.6687 36.117 37.978 35.9 37.124 35.9C36.3727 35.9 35.7473 36.0703 35.248 36.411C34.7487 36.7517 34.373 37.2277 34.121 37.839C33.869 38.4457 33.7407 39.1527 33.736 39.96C33.7313 40.7627 33.855 41.4697 34.107 42.081C34.359 42.6877 34.737 43.1637 35.241 43.509C35.745 43.8497 36.3727 44.02 37.124 44.02C37.978 44.02 38.6687 43.803 39.196 43.369C39.7233 42.9303 40.0897 42.3377 40.295 41.591L41.562 41.927C41.2773 42.9257 40.757 43.7237 40.001 44.321C39.2497 44.9137 38.2907 45.21 37.124 45.21ZM46.3172 45.21C45.5659 45.21 44.9172 45.0397 44.3712 44.699C43.8299 44.3583 43.4122 43.887 43.1182 43.285C42.8242 42.683 42.6772 41.9923 42.6772 41.213C42.6772 40.4197 42.8265 39.7243 43.1252 39.127C43.4239 38.5297 43.8462 38.0653 44.3922 37.734C44.9382 37.398 45.5799 37.23 46.3172 37.23C47.0732 37.23 47.7242 37.4003 48.2702 37.741C48.8162 38.077 49.2339 38.546 49.5232 39.148C49.8172 39.7453 49.9642 40.4337 49.9642 41.213C49.9642 42.0017 49.8172 42.697 49.5232 43.299C49.2292 43.8963 48.8092 44.3653 48.2632 44.706C47.7172 45.042 47.0685 45.21 46.3172 45.21ZM46.3172 44.027C47.1012 44.027 47.6845 43.7657 48.0672 43.243C48.4499 42.7203 48.6412 42.0437 48.6412 41.213C48.6412 40.359 48.4475 39.68 48.0602 39.176C47.6729 38.6673 47.0919 38.413 46.3172 38.413C45.7899 38.413 45.3559 38.532 45.0152 38.77C44.6745 39.008 44.4202 39.337 44.2522 39.757C44.0842 40.177 44.0002 40.6623 44.0002 41.213C44.0002 42.0623 44.1962 42.7437 44.5882 43.257C44.9802 43.7703 45.5565 44.027 46.3172 44.027ZM56.8884 45V41.213C56.8884 40.8537 56.8557 40.5083 56.7904 40.177C56.7297 39.8457 56.6201 39.5493 56.4614 39.288C56.3074 39.022 56.0974 38.812 55.8314 38.658C55.5701 38.504 55.2387 38.427 54.8374 38.427C54.5247 38.427 54.2401 38.4807 53.9834 38.588C53.7314 38.6907 53.5144 38.8493 53.3324 39.064C53.1504 39.2787 53.0081 39.5493 52.9054 39.876C52.8074 40.198 52.7584 40.5783 52.7584 41.017L51.9394 40.765C51.9394 40.0323 52.0701 39.4047 52.3314 38.882C52.5974 38.3547 52.9684 37.951 53.4444 37.671C53.9251 37.3863 54.4897 37.244 55.1384 37.244C55.6284 37.244 56.0461 37.321 56.3914 37.475C56.7367 37.629 57.0237 37.8343 57.2524 38.091C57.4811 38.343 57.6607 38.6277 57.7914 38.945C57.9221 39.2577 58.0131 39.5773 58.0644 39.904C58.1204 40.226 58.1484 40.5317 58.1484 40.821V45H56.8884ZM51.4984 45V37.44H52.6184V39.463H52.7584V45H51.4984ZM64.1893 45C63.7413 45.0887 63.2979 45.1237 62.8593 45.105C62.4253 45.091 62.0379 45.0047 61.6973 44.846C61.3566 44.6827 61.0976 44.4307 60.9203 44.09C60.7709 43.7913 60.6893 43.4903 60.6753 43.187C60.6659 42.879 60.6613 42.5313 60.6613 42.144V35.34H61.9073V42.088C61.9073 42.396 61.9096 42.6597 61.9143 42.879C61.9236 43.0983 61.9726 43.2873 62.0613 43.446C62.2293 43.7447 62.4953 43.9197 62.8593 43.971C63.2279 44.0223 63.6713 44.0083 64.1893 43.929V45ZM59.1283 38.469V37.44H64.1893V38.469H59.1283ZM67.8731 45.21C67.3085 45.21 66.8348 45.1073 66.4521 44.902C66.0741 44.692 65.7871 44.4167 65.5911 44.076C65.3998 43.7353 65.3041 43.362 65.3041 42.956C65.3041 42.5593 65.3788 42.2163 65.5281 41.927C65.6821 41.633 65.8968 41.3903 66.1721 41.199C66.4475 41.003 66.7765 40.849 67.1591 40.737C67.5185 40.639 67.9198 40.555 68.3631 40.485C68.8111 40.4103 69.2638 40.3427 69.7211 40.282C70.1785 40.2213 70.6055 40.163 71.0021 40.107L70.5541 40.366C70.5681 39.694 70.4328 39.197 70.1481 38.875C69.8681 38.553 69.3828 38.392 68.6921 38.392C68.2348 38.392 67.8335 38.497 67.4881 38.707C67.1475 38.9123 66.9071 39.2483 66.7671 39.715L65.5841 39.358C65.7661 38.6953 66.1185 38.175 66.6411 37.797C67.1638 37.419 67.8521 37.23 68.7061 37.23C69.3921 37.23 69.9801 37.3537 70.4701 37.601C70.9648 37.8437 71.3195 38.2123 71.5341 38.707C71.6415 38.9403 71.7091 39.1947 71.7371 39.47C71.7651 39.7407 71.7791 40.0253 71.7791 40.324V45H70.6731V43.187L70.9321 43.355C70.6475 43.9663 70.2485 44.4283 69.7351 44.741C69.2265 45.0537 68.6058 45.21 67.8731 45.21ZM68.0621 44.167C68.5101 44.167 68.8975 44.0877 69.2241 43.929C69.5555 43.7657 69.8215 43.5533 70.0221 43.292C70.2228 43.026 70.3535 42.7367 70.4141 42.424C70.4841 42.1907 70.5215 41.9317 70.5261 41.647C70.5355 41.3577 70.5401 41.136 70.5401 40.982L70.9741 41.171C70.5681 41.227 70.1691 41.2807 69.7771 41.332C69.3851 41.3833 69.0141 41.4393 68.6641 41.5C68.3141 41.556 67.9991 41.6237 67.7191 41.703C67.5138 41.7683 67.3201 41.8523 67.1381 41.955C66.9608 42.0577 66.8161 42.1907 66.7041 42.354C66.5968 42.5127 66.5431 42.711 66.5431 42.949C66.5431 43.1543 66.5945 43.3503 66.6971 43.537C66.8045 43.7237 66.9678 43.8753 67.1871 43.992C67.4111 44.1087 67.7028 44.167 68.0621 44.167ZM76.7841 45.21C76.0188 45.21 75.3678 45.0397 74.8311 44.699C74.2991 44.3537 73.8931 43.88 73.6131 43.278C73.3331 42.676 73.1885 41.99 73.1791 41.22C73.1885 40.4313 73.3355 39.7383 73.6201 39.141C73.9095 38.539 74.3225 38.07 74.8591 37.734C75.3958 37.398 76.0421 37.23 76.7981 37.23C77.5961 37.23 78.2821 37.426 78.8561 37.818C79.4348 38.21 79.8221 38.7467 80.0181 39.428L78.7861 39.799C78.6275 39.3603 78.3685 39.0197 78.0091 38.777C77.6545 38.5343 77.2461 38.413 76.7841 38.413C76.2661 38.413 75.8391 38.5343 75.5031 38.777C75.1671 39.015 74.9175 39.3463 74.7541 39.771C74.5908 40.191 74.5068 40.674 74.5021 41.22C74.5115 42.06 74.7051 42.739 75.0831 43.257C75.4658 43.7703 76.0328 44.027 76.7841 44.027C77.2788 44.027 77.6895 43.915 78.0161 43.691C78.3428 43.4623 78.5901 43.1333 78.7581 42.704L80.0181 43.033C79.7568 43.7377 79.3485 44.2767 78.7931 44.65C78.2378 45.0233 77.5681 45.21 76.7841 45.21ZM85.6678 45C85.2198 45.0887 84.7765 45.1237 84.3378 45.105C83.9038 45.091 83.5165 45.0047 83.1758 44.846C82.8351 44.6827 82.5761 44.4307 82.3988 44.09C82.2495 43.7913 82.1678 43.4903 82.1538 43.187C82.1445 42.879 82.1398 42.5313 82.1398 42.144V35.34H83.3858V42.088C83.3858 42.396 83.3881 42.6597 83.3928 42.879C83.4021 43.0983 83.4511 43.2873 83.5398 43.446C83.7078 43.7447 83.9738 43.9197 84.3378 43.971C84.7065 44.0223 85.1498 44.0083 85.6678 43.929V45ZM80.6068 38.469V37.44H85.6678V38.469H80.6068ZM90.0054 45V34.92H91.1394L94.9474 42.949L98.7344 34.92H99.8824V44.993H98.6994V37.657L95.2764 45H94.6114L91.1884 37.657V45H90.0054ZM105.121 45.21C104.379 45.21 103.731 45.0467 103.175 44.72C102.625 44.3887 102.195 43.929 101.887 43.341C101.579 42.7483 101.425 42.0577 101.425 41.269C101.425 40.443 101.577 39.729 101.88 39.127C102.184 38.5203 102.606 38.0537 103.147 37.727C103.693 37.3957 104.333 37.23 105.065 37.23C105.826 37.23 106.472 37.405 107.004 37.755C107.541 38.105 107.942 38.6043 108.208 39.253C108.479 39.9017 108.596 40.674 108.558 41.57H107.298V41.122C107.284 40.1933 107.095 39.5003 106.731 39.043C106.367 38.581 105.826 38.35 105.107 38.35C104.337 38.35 103.752 38.5973 103.35 39.092C102.949 39.5867 102.748 40.296 102.748 41.22C102.748 42.1113 102.949 42.802 103.35 43.292C103.752 43.782 104.323 44.027 105.065 44.027C105.565 44.027 105.999 43.9127 106.367 43.684C106.736 43.4553 107.025 43.1263 107.235 42.697L108.432 43.11C108.138 43.7773 107.695 44.2953 107.102 44.664C106.514 45.028 105.854 45.21 105.121 45.21ZM102.328 41.57V40.569H107.914V41.57H102.328Z" fill="#CCCCCC"/>
</g>
<defs>
<filter id="filter0_dii_8_37" x="8.1" y="13.1" width="125.8" height="56.8" filterUnits="userSpaceOnUse" color-interpolation-filters="sRGB">
<feFlood flood-opacity="0" result="BackgroundImageFix"/>
<feColorMatrix in="SourceAlpha" type="matrix" values="0 0 0 0 0 0 0 0 0 0 0 0 0 0 0 0 0 0 127 0" result="hardAlpha"/>
<feMorphology radius="1" operator="dilate" in="SourceAlpha" result="effect1_dropShadow_8_37"/>
<feOffset dy="2"/>
<feGaussianBlur stdDeviation="3.45"/>
<feComposite in2="hardAlpha" operator="out"/>
<feColorMatrix type="matrix" values="0 0 0 0 0.06 0 0 0 0 0.06 0 0 0 0 0.06 0 0 0 0.5 0"/>
<feBlend mode="normal" in2="BackgroundImageFix" result="effect1_dropShadow_8_37"/>
<feBlend mode="normal" in="SourceGraphic" in2="effect1_dropShadow_8_37" result="shape"/>
<feColorMatrix in="SourceAlpha" type="matrix" values="0 0 0 0 0 0 0 0 0 0 0 0 0 0 0 0 0 0 127 0" result="hardAlpha"/>
<feOffset dx="2" dy="4"/>
<feGaussianBlur stdDeviation="1"/>
<feComposite in2="hardAlpha" operator="arithmetic" k2="-1" k3="1"/>
<feColorMatrix type="matrix" values="0 0 0 0 0.2 0 0 0 0 0.2 0 0 0 0 0.2 0 0 0 0.6 0"/>
<feBlend mode="normal" in2="shape" result="effect2_innerShadow_8_37"/>
<feColorMatrix in="SourceAlpha" type="matrix" values="0 0 0 0 0 0 0 0 0 0 0 0 0 0 0 0 0 0 127 0" result="hardAlpha"/>
<feOffset dy="-2"/>
<feGaussianBlur stdDeviation="0.5"/>
<feComposite in2="hardAlpha" operator="arithmetic" k2="-1" k3="1"/>
<feColorMatrix type="matrix" values="0 0 0 0 0.12 0 0 0 0 0.12 0 0 0 0 0.12 0 0 0 1 0"/>
<feBlend mode="normal" in2="effect2_innerShadow_8_37" result="effect3_innerShadow_8_37"/>
</filter>
</defs>
</svg>
